{
	"asset":{
		"version":"2.0",
		"generator":"",
		"copyright":""
	},
	"scenes":[{
		"nodes":[0,
		1,
		2]
	}],
	"nodes":[{
		"mesh":0,
		"name":"dm",
		"translation":[0.0,
		-0.00005675065403920598,
		0.0],
		"rotation":[0.0,
		0.0,
		0.0,
		-1.0],
		"scale":[1.0,
		1.0,
		1.0]
	},
	{
		"mesh":1,
		"name":"ren"
	},
	{
		"mesh":2,
		"name":"light"
	}],
	"meshes":[{
		"name":"dm",
		"primitives":[{
			"attributes":{
				"POSITION":1,
				"NORMAL":2,
				"TEXCOORD_0":3
			},
			"indices":0
		}]
	},
	{
		"name":"ren",
		"primitives":[{
			"attributes":{
				"POSITION":5,
				"NORMAL":6
			},
			"indices":4
		}]
	},
	{
		"name":"light",
		"primitives":[{
			"attributes":{
				"POSITION":8,
				"NORMAL":9,
				"TEXCOORD_0":10
			},
			"indices":7
		}]
	}],
	"accessors":[{
		"bufferView":0,
		"type":"SCALAR",
		"min":[0],
		"componentType":5123,
		"count":87,
		"byteOffset":0,
		"max":[29]
	},
	{
		"bufferView":1,
		"type":"VEC3",
		"min":[-0.0022926810197532179,
		0.0,
		-0.00230281800031662],
		"componentType":5126,
		"count":30,
		"byteOffset":0,
		"max":[0.002306200098246336,
		0.0,
		0.00230281800031662]
	},
	{
		"bufferView":1,
		"type":"VEC3",
		"min":[0.0,
		1.0,
		0.0],
		"componentType":5126,
		"count":30,
		"byteOffset":12,
		"max":[0.0,
		1.0,
		0.0]
	},
	{
		"bufferView":1,
		"type":"VEC2",
		"min":[0.0029309988021850588,
		0.0007329881191253662],
		"componentType":5126,
		"count":30,
		"byteOffset":24,
		"max":[1.0,
		0.9992523193359375]
	},
	{
		"bufferView":2,
		"type":"SCALAR",
		"min":[0],
		"componentType":5123,
		"count":37644,
		"byteOffset":0,
		"max":[9084]
	},
	{
		"bufferView":3,
		"type":"VEC3",
		"min":[-0.0008419959922321141,
		-0.00008183900354197249,
		-0.0008241860195994377],
		"componentType":5126,
		"count":9085,
		"byteOffset":0,
		"max":[0.0008416249766014516,
		0.0029855079483240844,
		0.00019503000658005476]
	},
	{
		"bufferView":3,
		"type":"VEC3",
		"min":[-0.9998900294303894,
		-1.0,
		-1.0],
		"componentType":5126,
		"count":9085,
		"byteOffset":12,
		"max":[0.9999841451644898,
		1.0,
		0.9996523261070252]
	},
	{
		"bufferView":4,
		"type":"SCALAR",
		"min":[0],
		"componentType":5123,
		"count":396,
		"byteOffset":0,
		"max":[213]
	},
	{
		"bufferView":5,
		"type":"VEC3",
		"min":[-0.0020787001121789219,
		-0.00007906623795861378,
		-0.00013409600069280714],
		"componentType":5126,
		"count":214,
		"byteOffset":0,
		"max":[0.0001237444521393627,
		0.005187307950109243,
		0.0001339839946012944]
	},
	{
		"bufferView":5,
		"type":"VEC3",
		"min":[-0.9973209500312805,
		-1.0,
		-1.0],
		"componentType":5126,
		"count":214,
		"byteOffset":12,
		"max":[0.9843897819519043,
		0.960559070110321,
		1.0]
	},
	{
		"bufferView":5,
		"type":"VEC2",
		"min":[-1.464874267578125,
		-1.99462890625],
		"componentType":5126,
		"count":214,
		"byteOffset":24,
		"max":[2.4697265625,
		3.04931640625]
	}],
	"bufferViews":[{
		"buffer":0,
		"byteOffset":0,
		"byteLength":174,
		"target":34963
	},
	{
		"buffer":0,
		"byteOffset":176,
		"byteLength":960,
		"target":34962,
		"byteStride":32
	},
	{
		"buffer":1,
		"byteOffset":0,
		"byteLength":75288,
		"target":34963
	},
	{
		"buffer":1,
		"byteOffset":75288,
		"byteLength":218040,
		"target":34962,
		"byteStride":24
	},
	{
		"buffer":2,
		"byteOffset":0,
		"byteLength":792,
		"target":34963
	},
	{
		"buffer":2,
		"byteOffset":792,
		"byteLength":6848,
		"target":34962,
		"byteStride":32
	}],
	"buffers":[{
		"uri":"data:application/octet-stream;base64,",
		"byteLength":1136
	},
	{
		"uri":"data:application/octet-stream;base64,",
		"byteLength":293328
	},
	{
		"uri":"data:application/octet-stream;base64,",
		"byteLength":7640
	}]
}